<svg xmlns="http://www.w3.org/2000/svg" viewBox="0 0 55.4 55.4"><defs><style>.cls-1{fill:#8cc63e;}.cls-2{fill:#64892f;}.cls-3{fill:#ef4d3c;}.cls-4{fill:#fff0f0;}</style></defs><g id="Calque_2" data-name="Calque 2"><g id="Calque_1-2" data-name="Calque 1"><path class="cls-1" d="M19.9,10.22C21.2,6.65,31.12,0,31.12,0s3.12,11.89,1.81,15.45a6.7,6.7,0,0,1-8.88,3.85A7.22,7.22,0,0,1,19.9,10.22Z"/><path class="cls-2" d="M14,17.37c-1.59-3.46.74-15.2.74-15.2S25.31,8.36,26.9,11.81a6.75,6.75,0,0,1-3.58,9A7.14,7.14,0,0,1,14,17.37Z"/><path class="cls-1" d="M17.29,14.06c-3.44-1.59-15.13.75-15.13.75S8.32,25.43,11.75,27a6.71,6.71,0,0,0,9-3.6A7.21,7.21,0,0,0,17.29,14.06Z"/><path class="cls-2" d="M10.17,20C6.62,21.3,0,31.27,0,31.27s11.83,3.13,15.38,1.82a6.77,6.77,0,0,0,3.83-8.93A7.16,7.16,0,0,0,10.17,20Z"/><path class="cls-3" d="M45.74,13.59c10.61,10.66,11.83,33.9,6.82,38.94s-28.08,3.81-38.74-6.91c-7.86-7.89-4.18-19.78,4-28S37.89,5.7,45.74,13.59Z"/><path class="cls-4" d="M35.78,12.67a1.37,1.37,0,0,0-1.16.52c-.49.7,0,1.86,1,2.58a2.84,2.84,0,0,0,1.61.55,1.33,1.33,0,0,0,1.15-.52c.5-.7.06-1.86-1-2.58a2.86,2.86,0,0,0-1.61-.55"/><path class="cls-4" d="M39.14,28.84a1.22,1.22,0,0,0-.81.29c-.65.56-.5,1.79.32,2.74a2.63,2.63,0,0,0,1.87,1,1.21,1.21,0,0,0,.81-.28c.65-.56.5-1.79-.32-2.74a2.64,2.64,0,0,0-1.87-1"/><path class="cls-4" d="M31.18,20.86a1.2,1.2,0,0,0-.79.27c-.66.55-.54,1.78.27,2.75a2.62,2.62,0,0,0,1.88,1,1.13,1.13,0,0,0,.78-.27c.66-.55.54-1.78-.27-2.75a2.6,2.6,0,0,0-1.87-1"/><path class="cls-4" d="M44.78,21.78a1.11,1.11,0,0,0-.54.13c-.76.41-.88,1.64-.28,2.75a2.42,2.42,0,0,0,1.92,1.39,1,1,0,0,0,.54-.14c.76-.41.88-1.64.28-2.75a2.42,2.42,0,0,0-1.92-1.38"/><path class="cls-4" d="M49,34a1.26,1.26,0,0,0-.27,0c-.84.21-1.25,1.38-.94,2.6s1.06,1.85,1.81,1.85a.86.86,0,0,0,.28,0c.83-.21,1.25-1.38.93-2.6S49.77,34,49,34"/><path class="cls-4" d="M47.93,45.44a1.25,1.25,0,0,0-.84.3c-.63.57-.47,1.8.38,2.74a2.66,2.66,0,0,0,1.85.94,1.25,1.25,0,0,0,.84-.3c.63-.57.47-1.8-.38-2.73a2.64,2.64,0,0,0-1.85-1"/><path class="cls-4" d="M27.45,44a1.39,1.39,0,0,0-1.19.55c-.48.71,0,1.86,1,2.56a2.88,2.88,0,0,0,1.58.52,1.36,1.36,0,0,0,1.18-.54c.48-.72,0-1.87-1-2.57A3,3,0,0,0,27.45,44"/><path class="cls-4" d="M16.78,41a1.36,1.36,0,0,0-1.18.54c-.48.71,0,1.86,1,2.56a2.88,2.88,0,0,0,1.58.52,1.39,1.39,0,0,0,1.19-.54c.47-.71,0-1.86-1-2.56A2.88,2.88,0,0,0,16.78,41"/><path class="cls-4" d="M36.6,48.47a1.56,1.56,0,0,0-1.54.83c-.32.8.36,1.83,1.53,2.3a3.07,3.07,0,0,0,1.16.23A1.57,1.57,0,0,0,39.29,51c.32-.8-.37-1.83-1.54-2.3a3,3,0,0,0-1.15-.24"/><path class="cls-4" d="M38.65,39.27a1.41,1.41,0,0,0-1.28.61c-.44.74.08,1.86,1.17,2.5a3,3,0,0,0,1.48.44,1.41,1.41,0,0,0,1.27-.61c.44-.74-.08-1.87-1.16-2.51a3,3,0,0,0-1.48-.43"/><path class="cls-4" d="M28.8,32.72a1.29,1.29,0,0,0-1,.43c-.55.66-.21,1.85.76,2.65a2.73,2.73,0,0,0,1.72.69,1.29,1.29,0,0,0,1-.43c.55-.66.21-1.85-.76-2.66a2.81,2.81,0,0,0-1.72-.68"/><path class="cls-4" d="M20.81,20.22a1.26,1.26,0,0,0-.89.33c-.62.61-.4,1.82.49,2.72a2.68,2.68,0,0,0,1.82.87,1.22,1.22,0,0,0,.89-.34c.61-.6.39-1.82-.49-2.71a2.66,2.66,0,0,0-1.82-.87"/><path class="cls-4" d="M18.16,30.23a1.29,1.29,0,0,0-1.06.46c-.54.67-.17,1.85.82,2.63a2.79,2.79,0,0,0,1.69.65,1.31,1.31,0,0,0,1.06-.45c.53-.67.17-1.86-.82-2.64a2.79,2.79,0,0,0-1.69-.65"/></g></g></svg>