<svg xmlns="http://www.w3.org/2000/svg" viewBox="0 0 28 27.9"><defs><style>.cls-1{fill:#8e6244;}.cls-2{fill:#a87451;}.cls-3{fill:#ff9463;}.cls-4,.cls-6{fill:#8cc63e;}.cls-5,.cls-7{fill:#7fb539;}.cls-5,.cls-6{fill-rule:evenodd;}.cls-8{fill:#d97448;}</style></defs><g id="Calque_2" data-name="Calque 2"><g id="Calque_1-2" data-name="Calque 1"><path class="cls-1" d="M15.11,3.3c0-1.07-1.59-1.27-1.59-.23,0,1.23-.64,1.67-.64,2.33,0,.82,1.88,1,1.88.1S15.11,4.75,15.11,3.3Z"/><path class="cls-2" d="M14.51,3.16c1.29,0-1.07-1.67-1.07-.13,0,1.23-.89,1.8-.5,2.6C13.77,4.59,13.15,3.16,14.51,3.16Z"/><path class="cls-3" d="M1.14,14.26c0-7.53,6.16-12.13,12.72-8.61A9.55,9.55,0,0,1,28,14.26c0,6.77-3.72,10.56-8.39,12.29A23.28,23.28,0,0,1,13,27.9c-1.31,0-1.28-.68-2.54-1.06C5.34,25.34,1.14,21.46,1.14,14.26Z"/><path class="cls-4" d="M14.2,3a.17.17,0,0,1-.14-.09c-.93-1.38-1.84-1.06-1.84-1.06l-.09-.48s1.13-.39,2.22,1.22a.3.3,0,0,1,0,.35A.18.18,0,0,1,14.2,3Z"/><path class="cls-5" d="M10.4,0C5.75-.42,1,4.93,1,4.93A12.76,12.76,0,0,1,7,4.29c2.87.6,5.35-2.79,5.35-2.79A2.78,2.78,0,0,0,10.4,0Z"/><path class="cls-6" d="M6.07,3.73A19.94,19.94,0,0,1,0,8.85s6.93.72,11.16-4.11a5.84,5.84,0,0,0,1.23-3.32A6.26,6.26,0,0,0,6.07,3.73Z"/><path class="cls-7" d="M12.39,1.42a8,8,0,0,0-1.55.47,10.77,10.77,0,0,0-1.64.86,29.83,29.83,0,0,0-3,2.38,24.86,24.86,0,0,1-3,2.21A19.33,19.33,0,0,1,0,8.85a11.79,11.79,0,0,0,1.56-.51,16.05,16.05,0,0,0,1.63-.78A20,20,0,0,0,6.33,5.31c1-.83,1.92-1.67,2.93-2.37A11.87,11.87,0,0,1,12.39,1.42Z"/><path class="cls-8" d="M18,14.82a12.54,12.54,0,0,1-.33,4.89A9,9,0,0,1,14.9,24a7.51,7.51,0,0,0,4.16-3.82,9.44,9.44,0,0,0,.8-5.3,12.72,12.72,0,0,0-2-5.37,11.36,11.36,0,0,0-4.81-4.24,13.51,13.51,0,0,1,3.46,4.59A16.44,16.44,0,0,1,18,14.82Z"/></g></g></svg>